# xmcd
#
# Track frame offsets:
#	151
#	14182
#	29097
#	40462
#	56505
#	68638
#	81415
#	98006
#	106315
#	118564
#
# Disc length: 1804 seconds
#
# Revision: 0
# Processed by: cddbd v1.5.2PL0 Copyright (c) Steve Scherf et al.
# Submitted via: audiograbber 1.83.01
#
DISCID=88070a0a
DTITLE=Ely Silva e Degleir - Convite de Caboclo
DYEAR=1900
DGENRE=Sertanejo
TTITLE0=Felicidade
TTITLE1=Apenas 24 horas
TTITLE2=Ponto fraco
TTITLE3=Luz da meia noite
TTITLE4=Distante de quem eu amo
TTITLE5=Convite caboclo
TTITLE6=Moradia de caboclo
TTITLE7=Anjo Terrestre
TTITLE8=Um pouco de você
TTITLE9=Nossa terra
EXTD=
EXTT0=
EXTT1=
EXTT2=
EXTT3=
EXTT4=
EXTT5=
EXTT6=
EXTT7=
EXTT8=
EXTT9=
PLAYORDER=
